<svg id="Слой_1" data-name="Слой 1" xmlns="http://www.w3.org/2000/svg" viewBox="0 0 12.97 13.01"><defs><style>.cls-1{fill:#54858f;}</style></defs><path class="cls-1" d="M294.33,425.09a.85.85,0,0,0,.62.24h3.49a.9.9,0,0,0,.69-.28c1.71-1.73,3.43-3.45,5.15-5.18a.66.66,0,0,0,0-1.08c-1.19-1.2-2.37-2.4-3.57-3.59-.32-.32-.67-.62-1-.93h-.36a3.18,3.18,0,0,0-.37.27q-3.56,3.57-7.12,7.15a.66.66,0,0,0,0,1.08C292.7,423.54,293.52,424.31,294.33,425.09Zm2-6,3.43,3.45-.19.2c-.37.37-.73.75-1.12,1.11a.51.51,0,0,1-.35.15c-.94,0-1.88,0-2.82,0A.38.38,0,0,1,295,424c-.62-.57-1.23-1.15-1.83-1.72Z" transform="translate(-291.59 -414.27)"/><path class="cls-1" d="M304.07,426H292c-.29,0-.36.08-.36.37v.51c0,.37.06.43.43.43h12.21a.29.29,0,0,0,.32-.32c0-.17,0-.34,0-.51C304.56,426,304.52,426,304.07,426Z" transform="translate(-291.59 -414.27)"/></svg>